<svg xmlns="http://www.w3.org/2000/svg" xmlns:xlink="http://www.w3.org/1999/xlink" width="112" height="174" viewBox="0 0 112 174">
  <defs>
    <filter id="Rectangle_47" x="0" y="0" width="112" height="174" filterUnits="userSpaceOnUse">
      <feOffset dy="3" input="SourceAlpha"/>
      <feGaussianBlur stdDeviation="5" result="blur"/>
      <feFlood flood-opacity="0.302"/>
      <feComposite operator="in" in2="blur"/>
      <feComposite in="SourceGraphic"/>
    </filter>
    <filter id="fond_blanc" x="11" y="54" width="90" height="90" filterUnits="userSpaceOnUse">
      <feOffset dy="3" input="SourceAlpha"/>
      <feGaussianBlur stdDeviation="3" result="blur-2"/>
      <feFlood flood-opacity="0.161"/>
      <feComposite operator="in" in2="blur-2"/>
      <feComposite in="SourceGraphic"/>
    </filter>
    <radialGradient id="radial-gradient" cx="1" cy="0.5" r="0.452" gradientTransform="translate(-1.535 -0.238) scale(2.535 1.475)" gradientUnits="objectBoundingBox">
      <stop offset="0" stop-color="#6c9efc" stop-opacity="0.886"/>
      <stop offset="0.635" stop-color="#687ae9" stop-opacity="0.18"/>
      <stop offset="0.813" stop-color="#6876e7" stop-opacity="0"/>
      <stop offset="1" stop-color="#6772e5" stop-opacity="0"/>
    </radialGradient>
    <filter id="Tracé_6" x="39.139" y="68.056" width="18.397" height="24.996" filterUnits="userSpaceOnUse">
      <feOffset dy="1" input="SourceAlpha"/>
      <feGaussianBlur stdDeviation="0.5" result="blur-3"/>
      <feFlood flood-opacity="0.161"/>
      <feComposite operator="in" in2="blur-3"/>
      <feComposite in="SourceGraphic"/>
    </filter>
  </defs>
  <g id="phone_map" data-name="phone map" transform="translate(-123.853 -464.019)">
    <g id="template_phone" data-name="template phone" transform="translate(139 476.13)">
      <g transform="matrix(1, 0, 0, 1, -15.15, -12.11)" filter="url(#Rectangle_47)">
        <rect id="Rectangle_47-2" data-name="Rectangle 47" width="82" height="144" rx="5" transform="translate(15 12)" fill="#fff"/>
      </g>
      <rect id="Rectangle_48" data-name="Rectangle 48" width="67" height="125" transform="translate(7.853 9.889)" fill="rgba(183,199,230,0.25)"/>
    </g>
    <g id="map" transform="translate(194.042 523.356)">
      <g transform="matrix(1, 0, 0, 1, -70.19, -59.34)" filter="url(#fond_blanc)">
        <rect id="fond_blanc-2" data-name="fond blanc" width="72" height="72" rx="2" transform="translate(20 60)" fill="#fff"/>
      </g>
      <rect id="salle_grise" data-name="salle grise" width="34" height="23" transform="translate(-12.189 49.663)" fill="#ddd"/>
      <path id="salle_orange_bas" data-name="salle orange bas" d="M0,0H35V23H0Z" transform="translate(-50.189 49.663)" fill="#f0d692"/>
      <path id="salle_orange_haut" data-name="salle orange haut" d="M-22.35.427V17.521H.164V46.735H21.1V.427Z" transform="translate(0.989 0.006)" fill="#f0d692"/>
      <path id="salle_bleue" data-name="salle bleue" d="M-50.423,46.775V.249h26.106V20.982H-2.084V31.366H-21.223v2.26H-2.084V46.775Z" transform="translate(0 0)" fill="#b5d2ee"/>
      <path id="Tracé_18" data-name="Tracé 18" d="M782.115,1264.126h-20V1248.36h-15.8V1245.2h19.063v15.92h16.732Z" transform="translate(-764.189 -1214.337)" fill="#ed8692" stroke="#c94353" stroke-linecap="round" stroke-linejoin="round" stroke-width="0.2"/>
      <g id="icône_location" data-name="icône location" transform="translate(-29.551 9.219)">
        <circle id="Ellipse_8" data-name="Ellipse 8" cx="5.5" cy="5.5" r="5.5" transform="translate(2.361 17.444)" fill="#fff"/>
        <g id="Ellipse_7" data-name="Ellipse 7" transform="translate(2.361 17.444)" fill="none" stroke="rgba(112,112,112,0.31)" stroke-width="0.5">
          <circle cx="5.5" cy="5.5" r="5.5" stroke="none"/>
          <circle cx="5.5" cy="5.5" r="5.25" fill="none"/>
        </g>
        <g id="Ellipse_9" data-name="Ellipse 9" transform="translate(4.361 19.444)" fill="none" stroke="rgba(112,112,112,0.56)" stroke-width="0.5">
          <circle cx="3.5" cy="3.5" r="3.5" stroke="none"/>
          <circle cx="3.5" cy="3.5" r="3.25" fill="none"/>
        </g>
        <circle id="Ellipse_10" data-name="Ellipse 10" cx="1.5" cy="1.5" r="1.5" transform="translate(6.361 21.444)" fill="#707070"/>
        <path id="Tracé_19" data-name="Tracé 19" d="M783.849,1266.164l-8.98,9.078v-22.762l8.98,9.1" transform="translate(-735.792 -1225.016)" fill="url(#radial-gradient)"/>
        <g id="baseline-location_on-24px" transform="translate(0 0)">
          <path id="Tracé_11" data-name="Tracé 11" d="M4.125,0A4.125,4.125,0,1,1,0,4.125,4.125,4.125,0,0,1,4.125,0Z" transform="translate(3.498 3.737)" fill="#fff"/>
          <g transform="matrix(1, 0, 0, 1, -40.64, -68.56)" filter="url(#Tracé_6)">
            <path id="Tracé_6-2" data-name="Tracé 6" d="M12.7,2A7.693,7.693,0,0,0,5,9.7C5,15.472,12.7,24,12.7,24s7.7-8.523,7.7-14.3A7.693,7.693,0,0,0,12.7,2Zm0,10.448A2.749,2.749,0,1,1,15.448,9.7,2.75,2.75,0,0,1,12.7,12.448Z" transform="translate(35.64 66.56)" fill="#ed8692"/>
          </g>
        </g>
      </g>
      <g id="position" transform="translate(16.811 45.663)" fill="#6772e5" stroke="#fff" stroke-width="0.5">
        <circle cx="2.5" cy="2.5" r="2.5" stroke="none"/>
        <circle cx="2.5" cy="2.5" r="2.25" fill="none"/>
      </g>
      <g id="position-2" data-name="position" transform="translate(16.811 45.663)" fill="none" stroke="#6772e5" stroke-width="0.1">
        <circle cx="2.5" cy="2.5" r="2.5" stroke="none"/>
        <circle cx="2.5" cy="2.5" r="2.45" fill="none"/>
      </g>
    </g>
    <g id="texte" transform="translate(152.201 493.362)">
      <rect id="Rectangle_49" data-name="Rectangle 49" width="47" height="6" transform="translate(-0.348 -0.344)" fill="#fff"/>
      <rect id="Rectangle_50" data-name="Rectangle 50" width="56" height="3" transform="translate(-0.348 12.656)" fill="#fff"/>
      <rect id="Rectangle_51" data-name="Rectangle 51" width="42" height="3" transform="translate(-0.348 19.656)" fill="#fff"/>
    </g>
  </g>
</svg>
