<svg xmlns="http://www.w3.org/2000/svg" xmlns:xlink="http://www.w3.org/1999/xlink" width="112" height="174" viewBox="0 0 112 174">
  <defs>
    <filter id="Rectangle_47" x="0" y="0" width="112" height="174" filterUnits="userSpaceOnUse">
      <feOffset dy="3" input="SourceAlpha"/>
      <feGaussianBlur stdDeviation="5" result="blur"/>
      <feFlood flood-opacity="0.302"/>
      <feComposite operator="in" in2="blur"/>
      <feComposite in="SourceGraphic"/>
    </filter>
  </defs>
  <g id="phone_annuaire" data-name="phone annuaire" transform="translate(-123.853 -464.019)">
    <g id="template_phone" data-name="template phone" transform="translate(139 476.13)">
      <g transform="matrix(1, 0, 0, 1, -15.15, -12.11)" filter="url(#Rectangle_47)">
        <rect id="Rectangle_47-2" data-name="Rectangle 47" width="82" height="144" rx="5" transform="translate(15 12)" fill="#fff"/>
      </g>
      <rect id="Rectangle_48" data-name="Rectangle 48" width="67" height="125" transform="translate(7.853 9.889)" fill="rgba(183,199,230,0.27)"/>
    </g>
    <g id="texte" transform="translate(152.201 493.362)">
      <g id="contact_1" data-name="contact 1" transform="translate(0 5)">
        <rect id="Rectangle_50" data-name="Rectangle 50" width="36" height="2" transform="translate(14.652 13.656)" fill="#b4b4b3"/>
        <path id="Tracé_16" data-name="Tracé 16" d="M0,0H26V1.817H0Z" transform="translate(14.652 18.656)" fill="#b4b4b3"/>
        <circle id="Ellipse_11" data-name="Ellipse 11" cx="5.5" cy="5.5" r="5.5" transform="translate(-0.348 11.656)" fill="rgba(103,114,229,0.85)"/>
      </g>
      <g id="contact_1-2" data-name="contact 1" transform="translate(0 25)">
        <rect id="Rectangle_50-2" data-name="Rectangle 50" width="36" height="2" transform="translate(14.652 13.656)" fill="#b4b4b3"/>
        <path id="Tracé_16-2" data-name="Tracé 16" d="M0,0H26V1.817H0Z" transform="translate(14.652 18.656)" fill="#b4b4b3"/>
        <circle id="Ellipse_11-2" data-name="Ellipse 11" cx="5.5" cy="5.5" r="5.5" transform="translate(-0.348 11.656)" fill="rgba(103,114,229,0.85)"/>
      </g>
      <g id="contact_1-3" data-name="contact 1" transform="translate(0 45)">
        <rect id="Rectangle_50-3" data-name="Rectangle 50" width="36" height="2" transform="translate(14.652 13.656)" fill="#b4b4b3"/>
        <path id="Tracé_16-3" data-name="Tracé 16" d="M0,0H26V1.817H0Z" transform="translate(14.652 18.656)" fill="#b4b4b3"/>
        <circle id="Ellipse_11-3" data-name="Ellipse 11" cx="5.5" cy="5.5" r="5.5" transform="translate(-0.348 11.656)" fill="rgba(103,114,229,0.85)"/>
      </g>
      <g id="contact_1-4" data-name="contact 1" transform="translate(0 65)">
        <rect id="Rectangle_50-4" data-name="Rectangle 50" width="36" height="2" transform="translate(14.652 13.656)" fill="#b4b4b3"/>
        <path id="Tracé_16-4" data-name="Tracé 16" d="M0,0H26V1.817H0Z" transform="translate(14.652 18.656)" fill="#b4b4b3"/>
        <circle id="Ellipse_11-4" data-name="Ellipse 11" cx="5.5" cy="5.5" r="5.5" transform="translate(-0.348 11.656)" fill="rgba(103,114,229,0.85)"/>
      </g>
      <g id="contact_1-5" data-name="contact 1" transform="translate(0 85)">
        <rect id="Rectangle_50-5" data-name="Rectangle 50" width="36" height="2" transform="translate(14.652 13.656)" fill="#b4b4b3"/>
        <path id="Tracé_16-5" data-name="Tracé 16" d="M0,0H26V1.817H0Z" transform="translate(14.652 18.656)" fill="#b4b4b3"/>
        <circle id="Ellipse_11-5" data-name="Ellipse 11" cx="5.5" cy="5.5" r="5.5" transform="translate(-0.348 11.656)" fill="rgba(103,114,229,0.85)"/>
      </g>
      <rect id="Titre" width="55" height="6" transform="translate(-0.348 -0.344)" fill="#ed8692"/>
    </g>
  </g>
</svg>
